<svg xmlns="http://www.w3.org/2000/svg" viewBox="-2674.5 1827.5 32.635 32.635"><defs><style>.a{fill:none;stroke:#646464;stroke-width:1px}.b{fill:#6f6f6f}</style></defs><path class="a" d="M-2658.183 1828a15.817 15.817 0 1 0 15.818 15.817 15.766 15.766 0 0 0-15.818-15.817z"/><path class="b" d="M-2663.999 1833.817a2.043 2.043 0 1 0 0 4.082 2.011 2.011 0 0 0 2.143-2.041 1.957 1.957 0 0 0-2.143-2.041zm-1.939 5.613h3.878v11.633h-3.878zm13.368-.307a3.785 3.785 0 0 0-3.47 1.939v-1.633h-3.877v11.634h3.878v-6.531a2.534 2.534 0 0 1 .1-.918 2.12 2.12 0 0 1 1.939-1.429c1.429 0 1.939 1.02 1.939 2.653v6.225h3.878v-6.634c.001-3.673-1.934-5.306-4.387-5.306z"/></svg>