<svg xmlns="http://www.w3.org/2000/svg" viewBox="-2632.023 1827.599 32.889 32.901"><defs><style>.a,.b{fill:none;stroke:#646464;}.a{stroke-width:1px;}.b{stroke-width:0.8px;}</style></defs><g transform="translate(-2631.523 1828.099)"><g transform="translate(0)"><ellipse class="a" cx="15.944" cy="15.951" rx="15.944" ry="15.951"/></g><g transform="translate(6.591 6.584)"><path class="b" d="M112.792,103.2a9.391,9.391,0,0,0-2.246,18.509c0-1.161-.006-3.369-.006-3.452a1.879,1.879,0,0,1-2.68-.786,3.252,3.252,0,0,0-.874-1.384c-.019-.019-.421-.223-.46-.427a.118.118,0,0,1,.064-.1c.039-.012.708-.287,1.449.651a1.712,1.712,0,0,0,2.494.778,1.368,1.368,0,0,1,.466-.836c-2.629-.312-3.592-1.212-3.962-3.458a3.959,3.959,0,0,1,.887-3.433,3.168,3.168,0,0,1,.084-2.437,4.017,4.017,0,0,1,2.513.95,8.651,8.651,0,0,1,4.556,0c.408-.338,1.875-1.129,2.5-.944a3.566,3.566,0,0,1,.083,2.437,3.8,3.8,0,0,1,.9,3.267c-.179,2.023-1.205,3.388-3.988,3.624a1.8,1.8,0,0,1,.887,1.538v3.9a9.394,9.394,0,0,0-2.667-18.4Z" transform="translate(-103.4 -103.2)"/></g></g></svg>