<svg xmlns="http://www.w3.org/2000/svg" viewBox="-2674.5 1827.5 32.635 32.635"><defs><style>.a{fill:none;stroke:#646464;stroke-width:1px;}.b{fill:#6f6f6f;}</style></defs><g transform="translate(-2674.9 1827.2)"><path class="a" d="M16.717.8A15.817,15.817,0,1,0,32.535,16.617,15.766,15.766,0,0,0,16.717.8Z" transform="translate(0)"/><g transform="translate(8.758 6.617)"><path class="b" d="M10.743,6.5a2.043,2.043,0,1,0,0,4.082h0a2.011,2.011,0,0,0,2.143-2.041A1.957,1.957,0,0,0,10.743,6.5Z" transform="translate(-8.6 -6.5)"/><rect class="b" width="3.878" height="11.633" transform="translate(0.204 5.613)"/><path class="b" d="M22.047,11.7a3.785,3.785,0,0,0-3.47,1.939V12.006H14.7V23.64h3.878V17.109a2.534,2.534,0,0,1,.1-.918,2.12,2.12,0,0,1,1.939-1.429c1.429,0,1.939,1.02,1.939,2.653V23.64h3.878V17.006C26.435,13.333,24.5,11.7,22.047,11.7Z" transform="translate(-8.475 -6.394)"/></g></g></svg>