<svg xmlns="http://www.w3.org/2000/svg" viewBox="-2674.693 1827.727 32.773 32.773"><defs><style>.a,.b{fill:none;stroke:#646464;}.a{stroke-width:1px;}.b{stroke-width:0.8px;}</style></defs><g transform="translate(-2674.193 1828.227)"><path class="a" d="M15.886,0A15.886,15.886,0,1,0,31.773,15.886,15.884,15.884,0,0,0,15.886,0Zm7.371,12.175c.006.159.013.311.013.477a10.4,10.4,0,0,1-16.02,8.763,7.93,7.93,0,0,0,.877.051,7.316,7.316,0,0,0,4.544-1.57,3.663,3.663,0,0,1-3.419-2.542,3.511,3.511,0,0,0,.693.064,3.643,3.643,0,0,0,.96-.127A3.668,3.668,0,0,1,7.969,13.7v-.044a3.651,3.651,0,0,0,1.652.458,3.653,3.653,0,0,1-1.627-3.05,3.612,3.612,0,0,1,.5-1.836,10.373,10.373,0,0,0,7.543,3.825,3.6,3.6,0,0,1-.1-.832,3.659,3.659,0,0,1,6.329-2.5,7.326,7.326,0,0,0,2.319-.89,3.662,3.662,0,0,1-1.608,2.021,7.374,7.374,0,0,0,2.1-.578A7.234,7.234,0,0,1,23.258,12.175Z"/><g transform="translate(7.251 8.56)"><path class="b" d="M114.1,147.555a10.4,10.4,0,0,0,16.02-8.763c0-.165-.006-.318-.013-.477a7.233,7.233,0,0,0,1.824-1.906,7.373,7.373,0,0,1-2.1.578,3.661,3.661,0,0,0,1.608-2.021,7.324,7.324,0,0,1-2.319.89,3.66,3.66,0,0,0-6.329,2.5,3.6,3.6,0,0,0,.1.833,10.373,10.373,0,0,1-7.543-3.826,3.612,3.612,0,0,0-.5,1.837,3.653,3.653,0,0,0,1.627,3.05,3.652,3.652,0,0,1-1.652-.458v.044a3.668,3.668,0,0,0,2.936,3.59,3.641,3.641,0,0,1-.96.127,3.506,3.506,0,0,1-.693-.064,3.663,3.663,0,0,0,3.419,2.542,7.316,7.316,0,0,1-4.544,1.57A7.913,7.913,0,0,1,114.1,147.555Z" transform="translate(-114.1 -134.7)"/></g></g></svg>